<?xml version="1.0" standalone="no"?>
<!DOCTYPE svg PUBLIC "-//W3C//DTD SVG 20010904//EN"
 "http://www.w3.org/TR/2001/REC-SVG-20010904/DTD/svg10.dtd">
<svg version="1.0" xmlns="http://www.w3.org/2000/svg"
 width="128.000000pt" height="128.000000pt" viewBox="0 0 128.000000 128.000000"
 preserveAspectRatio="xMidYMid meet">

<g transform="translate(0.000000,128.000000) scale(0.100000,-0.100000)"
fill="#000000" stroke="none">
<path d="M181 1129 c-62 -77 -110 -146 -108 -152 3 -7 54 -71 114 -144 l109
-131 77 81 c42 45 77 84 77 87 0 4 20 30 45 59 25 30 44 58 43 63 -4 12 -232
277 -239 277 -3 1 -56 -62 -118 -140z"/>
<path d="M1011 1196 c-17 -20 -4 -56 18 -56 28 0 47 28 34 48 -14 23 -37 26
-52 8z"/>
<path d="M635 958 c-19 -9 -197 -213 -282 -322 -30 -39 -37 -56 -37 -90 2 -69
16 -135 31 -148 8 -6 50 -13 94 -15 l80 -4 69 67 c39 37 70 73 70 81 0 7 8 17
18 21 33 13 192 195 192 220 0 45 -69 138 -85 113 -3 -6 -13 -11 -21 -11 -11
0 -12 4 -4 19 14 27 14 27 -22 49 -43 26 -78 32 -103 20z m-266 -367 c-13 -16
-28 -30 -33 -30 -5 -1 -1 9 10 21 10 12 24 28 29 34 22 26 16 3 -6 -25z"/>
<path d="M788 526 c-101 -105 -178 -191 -178 -199 0 -3 57 -75 126 -159 70
-84 127 -154 128 -155 1 -1 66 62 144 140 l141 142 -134 155 c-74 85 -138 155
-142 156 -5 1 -43 -35 -85 -80z"/>
</g>
</svg>
